<svg width="82" height="86" viewBox="0 0 82 86" fill="none" xmlns="http://www.w3.org/2000/svg">
<path d="M39.263 1.04376C40.0305 -0.301165 41.9695 -0.301161 42.737 1.04376L49.4153 12.7458C49.9264 13.6415 51.0349 14.0016 51.9749 13.5775L64.256 8.03568C65.6674 7.39876 67.2361 8.53849 67.0666 10.0777L65.5911 23.4702C65.4781 24.4953 66.1632 25.4382 67.173 25.6476L80.366 28.3828C81.8823 28.6971 82.4814 30.5413 81.4395 31.6868L72.3739 41.6543C71.68 42.4173 71.68 43.5827 72.3739 44.3457L81.4395 54.3132C82.4815 55.4587 81.8823 57.3029 80.366 57.6172L67.173 60.3524C66.1632 60.5618 65.4781 61.5047 65.5911 62.5298L67.0666 75.9223C67.2361 77.4615 65.6674 78.6012 64.256 77.9643L51.9749 72.4225C51.0349 71.9984 49.9264 72.3585 49.4152 73.2542L42.737 84.9562C41.9695 86.3012 40.0305 86.3012 39.263 84.9562L32.5847 73.2542C32.0736 72.3585 30.9651 71.9984 30.0251 72.4225L17.744 77.9643C16.3326 78.6012 14.7639 77.4615 14.9334 75.9223L16.4089 62.5298C16.5219 61.5047 15.8368 60.5618 14.827 60.3524L1.63402 57.6172C0.117739 57.3029 -0.481445 55.4587 0.560471 54.3132L9.62607 44.3457C10.32 43.5827 10.32 42.4173 9.62607 41.6543L0.560468 31.6868C-0.481448 30.5413 0.117744 28.6971 1.63402 28.3828L14.827 25.6476C15.8368 25.4382 16.5219 24.4953 16.4089 23.4702L14.9334 10.0777C14.7639 8.53848 16.3326 7.39876 17.744 8.03568L30.0251 13.5775C30.9651 14.0016 32.0736 13.6415 32.5848 12.7458L39.263 1.04376Z" fill="#FF6F0F"/>
</svg>
