<svg width="78" height="17" viewBox="0 0 78 17" fill="none" xmlns="http://www.w3.org/2000/svg">
<path d="M10.992 16.5C14.592 16.5 16.272 14.772 16.272 12.036C16.272 9.876 14.832 8.388 11.856 8.172V7.956C14.544 7.764 15.6 6.324 15.6 4.332C15.6 1.812 13.824 0.42 10.536 0.42H0.888V16.5H10.992ZM4.488 3.66H10.08C11.424 3.66 12 4.14 12 5.244C12 6.348 11.448 6.804 10.128 6.804H4.488V3.66ZM4.488 9.78H10.56C12.024 9.78 12.624 10.236 12.624 11.508C12.624 12.804 12.024 13.26 10.56 13.26H4.488V9.78ZM30.9669 16.74C36.0789 16.74 38.1189 14.388 38.1189 11.772C38.1189 9.564 36.8229 7.812 33.2229 7.236L28.7109 6.516C27.3669 6.276 26.8389 5.94 26.8389 5.004C26.8389 3.972 27.6309 3.468 30.2229 3.468C33.4149 3.468 34.2069 4.116 34.2069 5.652V5.988H37.8309V5.844C37.8309 2.46 35.5269 0.18 30.5829 0.18C25.1829 0.18 23.2149 2.724 23.2149 5.148C23.2149 7.764 24.9189 9.204 27.7989 9.66L32.3109 10.308C33.9669 10.596 34.5189 10.956 34.5189 11.94C34.5189 13.02 33.8469 13.452 30.9669 13.452C27.7029 13.452 26.9589 12.852 26.9589 11.364V10.932H23.3589V11.076C23.3589 14.82 26.0949 16.74 30.9669 16.74ZM43.185 16.5V10.308H47.241L51.393 16.5H55.713L50.193 8.34L55.785 0.42H51.465L47.193 6.804H43.185V0.42H39.585V16.5H43.185ZM60.2944 16.5V0.42H56.6944V16.5H60.2944ZM65.7788 16.5V8.748L65.6348 5.796H65.8748L67.9148 8.82L73.8428 16.5H77.6828V0.42H74.0828V8.172L74.2508 11.412H73.9868L71.7788 8.028L66.0188 0.42H62.1788V16.5H65.7788Z" fill="#FF860D"/>
<path d="M21.9926 16.5V12.3H17.3606V16.5H21.9926Z" fill="#423E3D"/>
</svg>
